<svg xmlns="http://www.w3.org/2000/svg" width="125.287" height="458.269" viewBox="0 0 125.287 458.269"><defs><style>.a{fill:#122344;}.a,.b,.c,.d,.e,.f,.g,.h,.i,.j,.k,.l,.m,.n,.p,.q,.r{fill-rule:evenodd;}.b{fill:#d77f68;}.c{fill:#2f4b8c;}.d{fill:#283766;}.e{fill:#e29a30;}.f{fill:#fff;}.g{fill:#d1d8e4;}.h{fill:#cc3129;}.i{fill:#9d2529;}.j{fill:#e6ad83;}.k{fill:#d7766d;}.l,.o{fill:#12151d;}.m{fill:#ebbf9e;}.n{fill:#d26070;}.p{fill:#2c54a0;}.q{fill:#3d60a8;}.r{fill:#d7722d;}</style></defs><g transform="translate(-33.656 -16.659)"><path class="a" d="M118.432,217.713l1.585,5.207s5.031,3.345,5.348,5.016,1.777,5.333,2.252,7.765,2.476,13.861,3.267,15.685.5,85.713.5,96.33.305,10.155.79,18.334h0l-2.1,92.038a3.389,3.389,0,0,1-2.933,3.818c-3.456.8-11.374.211-13.754-.3a13.741,13.741,0,0,1-3.554-1.715c-1.585-1.368-1.109-24.168-1.425-27.664s-7.289-74.025-9.191-85.881S81.158,253.13,78.306,241.578,68.8,224.749,68.8,224.749Z"/><path class="b" d="M140.338,245.343c-3.409,5.454-5.476,16.614-10.065,17.073-5.732.573-8.09-20.384-8.09-20.384s6.816-3.377,7.39-3.313S140.338,245.343,140.338,245.343Z"/><path class="c" d="M60.12,105.912s-10.219,5.1-13.268,14.247-12.846,64.79-12.846,64.79a62.149,62.149,0,0,0,2.371,24.728C40.442,222.549,50.1,248.97,50.1,248.97s1.069,2,4.006.236,11.576-7.518,11.576-7.518l.255-11.771-1.305-5.882-12.5-36.205L65.39,154.238S70.739,124.6,60.12,105.912Z"/><path class="d" d="M54.031,193.342l-1.9-5.512,6.322-16.013,3.577-52.746-3.95-4.194L46.113,174.852l-4.742,3.376,4.823-.322,7.837,15.436ZM40.087,220.817c1.857,5.4,3.9,11.183,5.66,16.1l11.335-34.737-1.005-2.912-5.25-4.485Z"/><path class="a" d="M57.126,217.148l-3.479,7.2-.928,11.04a83.443,83.443,0,0,0-4.5,7.9c-.667,1.825,1.08,15.7.834,18.438S61.065,378.64,62.038,400.569c1.4,31.57,5.189,54.137,4.964,56.264s1.867,5.711,4.847,5.953,6.094-1.251,9.728-2.114l.07-.017h0c1.442-.378,1.539-2.186,1.539-2.186L84.884,420.8h0c-.113-5.728-.105-21.737.125-28.39.243-6.992,3.557-128.6,3.557-128.6L78.9,220.343Z"/><path class="e" d="M51.294,233.033a132.463,132.463,0,0,0,41.634,3.054c22.345-2.09-16.556-15.432-27.167-11.735S51.294,233.033,51.294,233.033Z"/><path class="f" d="M106.376,99.227,132.46,108s-7.03,10.541-3.642,40.688c0,0-7.366,35.527-7.366,40.269s3.979,25.236,3.979,28.285-41.65,23.107-76.2,6.17c0,0-.678-.678-.847-2.879s6-48.513,7.014-54.948S53.7,148.141,53.7,148.141l6.435-41.664L78.2,99.02Z"/><path class="g" d="M81.6,99.013l.205,0v1.224l6.293,7.419,16.359-7.626v-.85l.256,0,2.076,2.224L95.341,117.242l-7.24-9.585-6.462,9.4L78.615,101.2Z"/><path class="g" d="M127.011,157.56c-2.18,10.853-5.559,28.187-5.559,31.4,0,4.743,3.979,25.236,3.979,28.285,0,2.154-20.8,12.8-45.188,12.885L96.463,151l25.805-14.29s1.909,8.255,4.743,20.849Zm-55.2,72.159a66.428,66.428,0,0,1-22.581-6.306s-.678-.678-.847-2.879,6-48.513,7.014-54.948S53.7,148.141,53.7,148.141l6.435-41.664L78.2,99.02l1.477.011.475,2.077-9.806,42.758Z"/><path class="h" d="M83.2,115.649l-10.689,77L77.98,208.4l12.377-17.361-1.849-75.393L85.375,114Z"/><path class="i" d="M82,109.622l1.205,6.027h5.3l5.305-7.555-5.466-5.787s-4.339,2.242-4.58,3.171S82,109.622,82,109.622Z"/><path class="b" d="M104.044,80.362H81.393v25.115h9l13.652-5.311Z"/><path class="f" d="M87.685,105.478l-6.292-7.42V96.683L78.2,99.02l3.025,15.859,6.461-9.4,7.241,9.584,11.45-15.834-2.331-2.5v1.123Z"/><path class="b" d="M70.637,63.34c-.159.023-.315.05-.47.084h0a6.439,6.439,0,1,0,5.381,1.257c.177,1.9-.108,4.253-2.532,4.506l.044-3.712A2.212,2.212,0,0,0,70.637,63.34Z"/><path class="b" d="M113.056,63.333c.159.021.317.046.473.078h0a6.437,6.437,0,1,1-5.364,1.331c-.15,1.9.168,4.252,2.6,4.47l-.1-3.711A2.213,2.213,0,0,1,113.056,63.333Z"/><path class="j" d="M91.89,95.575c12.016,0,22.04-14.827,22.04-26.534V53.491A22.1,22.1,0,0,0,91.893,31.453h0A22.1,22.1,0,0,0,69.853,53.491V68.712C69.853,81.542,78.6,95.575,91.89,95.575Z"/><path class="k" d="M80.083,73.388a3.055,3.055,0,1,1-3.111,3A3.055,3.055,0,0,1,80.083,73.388Z"/><path class="k" d="M103.812,73.874a3.055,3.055,0,1,1-3.11,3A3.056,3.056,0,0,1,103.812,73.874Z"/><path class="l" d="M99.209,57.394a.923.923,0,0,0,.763,1.682,6.047,6.047,0,0,1,5.449.35.927.927,0,1,0,.988-1.569A7.994,7.994,0,0,0,99.209,57.394Z"/><path class="l" d="M77.416,57.806a.923.923,0,1,0,.9,1.614,6.045,6.045,0,0,1,5.46-.094.927.927,0,1,0,.855-1.644A7.984,7.984,0,0,0,77.416,57.806Z"/><path class="m" d="M91.3,70.524A19.045,19.045,0,0,0,90.231,74c.086.473,2.526.911,3.167.289.428-.415-.1-2.236-.565-3.462C92.2,69.153,91.851,69.024,91.3,70.524Z"/><path class="l" d="M87.26,78.683a4.631,4.631,0,1,0,9.262,0,.854.854,0,0,0-.853-.853H88.113A.854.854,0,0,0,87.26,78.683Z"/><path class="f" d="M95.2,77.831H88.58v.783a.743.743,0,0,0,.742.741h5.139a.743.743,0,0,0,.742-.741Z"/><path class="n" d="M88.535,81.874a4.631,4.631,0,0,0,6.712,0,4.628,4.628,0,0,0-6.712,0Z"/><circle class="o" cx="2.654" cy="2.654" r="2.654" transform="translate(100.016 64.45)"/><path class="l" d="M81.113,69.758A2.654,2.654,0,1,0,78.458,67.1,2.659,2.659,0,0,0,81.113,69.758Z"/><path class="c" d="M131.357,107.54s10.639,2.547,13.687,11.693,13.549,67.24,13.549,67.24a62.106,62.106,0,0,1-2.371,24.728c-4.064,12.872-13.719,39.293-13.719,39.293s-1.068,2-4.005.236h0c-2.359-3.28-8.352-10.217-8.79-12.457s-.789-8.417-1.007-9.573.23-2.291-.728-3.141h0l12.5-36.205-11.654-40.665S120.738,126.226,131.357,107.54Z"/><path class="d" d="M157.877,204.537a56.118,56.118,0,0,1-1.655,6.664c-4.064,12.872-13.719,39.293-13.719,39.293s-1.068,2-4.005.236h0c-2.359-3.28-8.352-10.217-8.79-12.457s-.789-8.417-1.007-9.573.23-2.291-.728-3.141h0l2.961-8.578h0l3.432,15.824s2.09,6.43,6.429.643C144.4,228.644,154.539,210.543,157.877,204.537Z"/><path class="c" d="M82.318,237c0,5.788,3.216,7.073,3.216,7.073,8.174,6.4,39.594,7.559,48.3,11.251-2.243-15.44-5.1-29.047-5.1-29.047a58.38,58.38,0,0,1,2.193-9.3l-5.377-24.915c1.688-2.33-.482-3.536-.482-3.536,0-1.447,4.1-38.6,4.1-38.6C124.752,124.186,132.46,108,132.46,108s-19.2-8.045-20.168-8.125a2.954,2.954,0,0,0-1.873.711S97.106,147.786,96.463,151s-.57,23.359-.891,26.895S82.318,237,82.318,237Z"/><path class="p" d="M103.591,124.916c-3.379,12.1-6.809,24.492-7.128,26.085-.395,1.978-.52,10.358-.632,17.341L108.2,148.093l.321-22.666Z"/><path class="q" d="M118.668,102.309c-3.323-1.345-6.03-2.4-6.376-2.433a2.954,2.954,0,0,0-1.873.711s-5.794,20.548-9.923,35.452l19.761-13.827Z"/><path class="d" d="M125.074,188.531c0-1.447,4.1-38.6,4.1-38.6a93.455,93.455,0,0,1-1.349-14.017l-7.606,33.4Z"/><path class="c" d="M77.189,99.438a4.861,4.861,0,0,0-1.3-.077c-.481.081-15.213,6.23-15.574,6.431s-.683.321-1.326,3.617-5.426,34.44-5.587,35.605-.281,2.734.443,7.556,1.447,9.324,1.286,10.449-7.715,56.987-8.037,59.4-3.858,25.078-3.858,27.167,4.339,4.5,5.465,5.386,1.687.885,4.1-.161,14.63-12.537,14.63-12.537a10.751,10.751,0,0,0,2.251-7.073c-.161-4.34-.482-67.354-.482-70.568s-1.768-12.781-2.009-14.709S76,99.931,76,99.931Z"/><path class="p" d="M69.2,165.133l0-.5c0-3.215-1.768-12.781-2.009-14.709-.129-1.032,2.4-15.265,4.781-28.281l-3.793-.393-8.52,19.611Z"/><path class="q" d="M77.189,99.438a4.861,4.861,0,0,0-1.3-.077c-.156.027-1.813.692-3.992,1.585L64,120.765l5.949,12.057h0C72.53,118.333,76,99.931,76,99.931Z"/><path class="e" d="M111.692,459.244s.358-4.9,3.262-4.9h5.674c1.921,0,3.8,3,4.334,5.2a3.332,3.332,0,0,1,2.279,2.4c.4,1.9,1.3,8.989,1.429,9.688s.626,3.3-2.278,3.3H105.661c-1.832,0-1.609-1.349-1.609-2.124a12.37,12.37,0,0,1,1.384-5.145C106.419,466.161,111.692,459.244,111.692,459.244Z"/><path class="r" d="M111.692,459.244s.358-4.9,3.263-4.9h5.673c1.921,0,3.8,3,4.334,5.2l-2.334,4.931a4.326,4.326,0,0,1-3.065,1.111H113s-1.726-.338-1.639-1.931S111.692,459.244,111.692,459.244Z"/><path class="f" d="M128.566,470.941c.049.344.085.586.1.688.135.7.626,3.3-2.278,3.3H105.661c-1.832,0-1.609-1.349-1.609-2.125a11.554,11.554,0,0,1,.233-1.862Z"/><path class="e" d="M65.711,455.115s-9.329,8.212-12.71,8.864-10.785,1.3-12.359,2.216-3.032,4.758-3.207,5.475-.583,3.258,1.69,3.258H80.87c1.749,0,2.1-.977,2.1-2.411a5.732,5.732,0,0,0-1.05-2.868v-8.017a3.03,3.03,0,0,0-2.973-3.323c-3.521-.226-7.367,1.8-9.644-1.917C68.292,454.745,67.852,453.47,65.711,455.115Z"/><path class="r" d="M65.711,455.116s-8.946,7.874-12.492,8.811a6.685,6.685,0,0,0,4.5,2.045c1.285-.1,10.923-4.515,11.795-5.694s-.037-3.61-.037-3.61h0c-.062-.089-.121-.18-.18-.276C68.292,454.745,67.852,453.469,65.711,455.116Z"/><path class="f" d="M38.208,469.649a14.856,14.856,0,0,0-.773,2.021c-.175.717-.583,3.258,1.691,3.258H80.87c1.748,0,2.1-.977,2.1-2.411a5.735,5.735,0,0,0-1.049-2.868Z"/><path class="l" d="M69.853,68.368l2.129-8.621s6.86-5.033,4.423-12.036S73.49,41.4,73.49,41.4s-9.14,4.118-5.073,22.681Z"/><path class="l" d="M113.93,68.368l-2.13-8.621s-6.859-5.033-4.422-12.036,2.914-6.311,2.914-6.311,9.141,4.118,5.073,22.681Z"/><path class="l" d="M76.193,55.332c10.371,1.44,24.977-11.185,29.475-10.055,5.172,1.3,4.087,7.374,4.087,7.374l5.627-9.313c8-13.249-5.462-16.539-4.867-11.4,0,0-9.235-12.513-15.1-14.851s-6.5,5.638-6.5,5.638C58.172,18.5,57.838,52.782,76.193,55.332Z"/></g></svg>